# xmcd CD database file
#
# Track frame offsets:
#	150
#	10768
#	22801
#	34378
#	46992
#	57121
#	69641
#	80681
#	93064
#	105554
#	117944
#	128790
#	139478
#	150789
#	162843
#	173175
#	183223
#	193753
#	204579
#	217685
#	228037
#	237720
#	249785
#	261586
#	273948
#	284029
#
# Disc length: 3923 seconds
#
# Revision: 4
# Processed by: cddbd v1.5.2PL0 Copyright (c) Steve Scherf et al.
# Submitted via: CDex 1.70beta3
#
DISCID=630f511a
DTITLE=Lightnin' Hopkins - Lightnin' and the Blues
DYEAR=2006
DGENRE=Blues
TTITLE0=Nothin' But The Blues
TTITLE1=Don't Think 'Cause You're Pretty (Blue Is A Mighty Bad Feelin')
TTITLE2=Lightnin's Boogie (Boogie Woogie Dance)
TTITLE3=Life I Used To Live (Gonna Change My Ways)
TTITLE4=Sick Feelin' Blues (I'm Achin')
TTITLE5=Evil Hearted Woman
TTITLE6=Blues For My Cookie
TTITLE7=Sittin' Down Thinkin'
TTITLE8=My Baby's Gone
TTITLE9=Lonesome In Your Home
TTITLE10=Lightnin's Special (Flash Lightnin')
TTITLE11=My Little Kewpie Doll (Bad Boogie)
TTITLE12=I Love You Baby
TTITLE13=Shine On Moon
TTITLE14=Had A Gal Called Sal
TTITLE15=Hopkins' Sky Hop
TTITLE16=Lightnin' Don't Feel Well (I Wonder What Is Wrong With Me)
TTITLE17=Finally Met My Baby
TTITLE18=That's Alright Baby
TTITLE19=Don't Need No Job
TTITLE20=They Wonder Who I Am
TTITLE21=Remember Me
TTITLE22=Grandma's Boogie (Lightnin's Stomp)
TTITLE23=Please Don't Go Baby
TTITLE24=Early Mornin' Boogie (Hear Me Talkin')
TTITLE25=Moving On Out Boogie (Let's Move)
EXTD=YEAR: 2006
EXTT0=
EXTT1=
EXTT2=
EXTT3=
EXTT4=
EXTT5=
EXTT6=
EXTT7=
EXTT8=
EXTT9=
EXTT10=
EXTT11=
EXTT12=
EXTT13=
EXTT14=
EXTT15=
EXTT16=
EXTT17=
EXTT18=
EXTT19=
EXTT20=
EXTT21=
EXTT22=
EXTT23=
EXTT24=
EXTT25=
PLAYORDER=
